<svg xmlns="http://www.w3.org/2000/svg" width="725" height="490" viewBox="0 0 290 196" font-family="Arial, sans-serif">
  <defs>
    <marker id="ah" viewBox="0 0 8 6" refX="8" refY="3"
      markerWidth="4" markerHeight="3" orient="auto">
      <path d="M0.5,0.5 L7,3 L0.5,5.5" fill="none" stroke="#94A3B8"
        stroke-width="1.2" stroke-linejoin="round" stroke-linecap="round"/>
    </marker>
    <filter id="shadow" x="-6%" y="-8%" width="112%" height="128%">
      <feDropShadow dx="0" dy="0.5" stdDeviation="0.8"
        flood-color="#000" flood-opacity="0.05"/>
    </filter>
  </defs>
  <rect width="290" height="196" fill="#F8F9FB" rx="3"/>
  <text x="145" y="11" text-anchor="middle" font-size="6" font-weight="700" fill="#1E293B">Artistic Auras Architecture</text>
  <rect x="70" y="16" width="150" height="10" rx="3" fill="#fff" stroke="#E2E5EA" stroke-width="0.4"/>
  <rect x="75" y="18.5" width="5" height="5" rx="2.5" fill="#fff" stroke="#E2E5EA" stroke-width="0.4"/>
  <text x="83" y="22.5" font-size="3.5" fill="#1E293B">Actor</text>
  <rect x="115" y="18.5" width="5" height="5" rx="1.5" fill="#fff" stroke="#E2E5EA" stroke-width="0.4"/>
  <rect x="116" y="19.5" width="0.8" height="3" rx="0.4" fill="#3B82F6"/>
  <text x="123" y="22.5" font-size="3.5" fill="#1E293B">Protocol</text>
  <rect x="163" y="18.5" width="5" height="5" rx="1.5" fill="#fff" stroke="#E2E5EA" stroke-width="0.4"/>
  <rect x="164" y="19.5" width="0.8" height="3" rx="0.4" fill="#F59E0B"/>
  <text x="171" y="22.5" font-size="3.5" fill="#1E293B">External</text>
  <path d="M87.5,46.0 C87.5,70.0 121.0,70.0 121.0,94.0" fill="none" stroke="#94A3B8" stroke-width="0.5" marker-end="url(#ah)"/>
  <path d="M199.1,46.0 C199.1,70.0 121.0,70.0 121.0,94.0" fill="none" stroke="#94A3B8" stroke-width="0.5" marker-end="url(#ah)"/>
  <path d="M121.0,114.0 C121.0,135.0 92.8,135.0 92.8,156.0" fill="none" stroke="#94A3B8" stroke-width="0.5" marker-end="url(#ah)"/>
  <path d="M121.0,114.0 C121.0,135.0 218.8,135.0 218.8,156.0" fill="none" stroke="#94A3B8" stroke-width="0.5" marker-end="url(#ah)"/>
  <g filter="url(#shadow)">
    <rect x="46.3" y="32.0" width="82.4" height="14" rx="7" fill="#fff" stroke="#E2E5EA" stroke-width="0.5"/>
    <text x="87.5" y="40.8" text-anchor="middle" font-size="4.8" font-weight="600" fill="#1E293B">Public Minter</text>
  </g>
  <g filter="url(#shadow)">
    <rect x="150.7" y="32.0" width="96.8" height="14" rx="7" fill="#fff" stroke="#E2E5EA" stroke-width="0.5"/>
    <text x="199.1" y="40.8" text-anchor="middle" font-size="4.8" font-weight="600" fill="#1E293B">Owner / Deployer</text>
  </g>
  <g filter="url(#shadow)">
    <rect x="79.8" y="94.0" width="82.4" height="20" rx="3" fill="#fff" stroke="#E2E5EA" stroke-width="0.5"/>
    <rect x="82.8" y="97.0" width="1.4" height="14" rx="0.6" fill="#3B82F6"/>
    <text x="121.0" y="103.5" text-anchor="middle" font-size="4.8" font-weight="600" fill="#1E293B">ArtisticAuras</text>
    <text x="121.0" y="108.5" text-anchor="middle" font-size="3.5" fill="#64748B">protocol</text>
  </g>
  <g filter="url(#shadow)">
    <rect x="30.0" y="156.0" width="125.6" height="20" rx="3" fill="#fff" stroke="#E2E5EA" stroke-width="0.5"/>
    <rect x="33.0" y="159.0" width="1.4" height="14" rx="0.6" fill="#F59E0B"/>
    <text x="92.8" y="165.5" text-anchor="middle" font-size="4.8" font-weight="600" fill="#1E293B">OpenZeppelin Contracts</text>
    <text x="92.8" y="170.5" text-anchor="middle" font-size="3.5" fill="#64748B">external</text>
  </g>
  <g filter="url(#shadow)">
    <rect x="177.6" y="156.0" width="82.4" height="20" rx="3" fill="#fff" stroke="#E2E5EA" stroke-width="0.5"/>
    <rect x="180.6" y="159.0" width="1.4" height="14" rx="0.6" fill="#F59E0B"/>
    <text x="218.8" y="165.5" text-anchor="middle" font-size="4.8" font-weight="600" fill="#1E293B">IPFS / Pinata</text>
    <text x="218.8" y="170.5" text-anchor="middle" font-size="3.5" fill="#64748B">external</text>
  </g>
  <rect x="78.2" y="65.0" width="52.0" height="6.0" rx="1" fill="#F8F9FB"/>
  <text x="104.2" y="70.0" font-size="4" fill="#1E293B" font-weight="500" text-anchor="middle">mint(quantity) + ETH</text>
  <rect x="138.8" y="65.0" width="42.4" height="6.0" rx="1" fill="#F8F9FB"/>
  <text x="160.0" y="70.0" font-size="4" fill="#1E293B" font-weight="500" text-anchor="middle">admin operations</text>
  <rect x="31.7" y="130.0" width="150.4" height="6.0" rx="1" fill="#F8F9FB"/>
  <text x="106.9" y="135.0" font-size="4" fill="#1E293B" font-weight="500" text-anchor="middle">inherits ERC721 / Pausable / 2981 / Ownable / ReentrancyGuard</text>
  <rect x="129.5" y="122.0" width="80.8" height="6.0" rx="1" fill="#F8F9FB"/>
  <text x="169.9" y="127.0" font-size="4" fill="#1E293B" font-weight="500" text-anchor="middle">tokenURI reads baseURI + id.json</text>
</svg>